<svg width="40" height="40" viewBox="0 0 40 40" fill="none" xmlns="http://www.w3.org/2000/svg">
<g clip-path="url(#clip0)">
<path d="M31.7136 5.24074H28.0948V3.62184C28.0948 3.09807 27.5235 2.86001 26.9997 2.86001H24.1905C23.5239 0.955392 21.8573 0.00308302 19.9527 0.00308302C18.069 -0.0677318 16.3557 1.08727 15.7149 2.86001H12.9532C12.4294 2.86001 11.9057 3.09807 11.9057 3.62184V5.24074H8.28683C6.14233 5.26361 4.38791 6.95533 4.28711 9.09755V36.3811C4.28711 38.4762 6.19173 39.9999 8.28683 39.9999H31.7136C33.8087 39.9999 35.7133 38.4762 35.7133 36.3811V9.09764C35.6125 6.95533 33.8581 5.26361 31.7136 5.24074ZM13.8102 4.76463H16.4291C16.8862 4.70885 17.2534 4.36107 17.3338 3.90756C17.6158 2.67956 18.6931 1.79806 19.9527 1.76489C21.2006 1.80271 22.2617 2.68694 22.5239 3.90756C22.6093 4.37674 23.0007 4.72899 23.4762 4.76463H26.1903V8.57387H13.8102V4.76463ZM33.8087 36.3812C33.8087 37.4288 32.7612 38.0954 31.7136 38.0954H8.28683C7.23928 38.0954 6.19173 37.4288 6.19173 36.3812V9.09764C6.28888 8.00726 7.19225 7.16541 8.28683 7.14545H11.9056V9.57384C11.9559 10.1074 12.418 10.5065 12.9531 10.4786H26.9996C27.5446 10.5084 28.0212 10.1147 28.0948 9.57384V7.14536H31.7135C32.808 7.16541 33.7115 8.00717 33.8086 9.09755V36.3812H33.8087Z" fill="#FA7907"/>
<path d="M16.3348 21.2871C15.9776 20.9106 15.3847 20.8894 15.0015 21.2396L11.9541 24.1441L10.6685 22.8108C10.3113 22.4343 9.71837 22.4131 9.33522 22.7632C8.96638 23.1496 8.96638 23.7576 9.33522 24.1441L11.2874 26.1439C11.4564 26.3331 11.7005 26.4377 11.954 26.4296C12.2052 26.4261 12.4448 26.3234 12.6206 26.1439L16.3346 22.6204C16.7028 22.2826 16.7274 21.7103 16.3896 21.3422C16.3722 21.3229 16.3539 21.3046 16.3348 21.2871Z" fill="#FA7907"/>
<path d="M29.9995 23.334H19.048C18.522 23.334 18.0957 23.7603 18.0957 24.2863C18.0957 24.8123 18.522 25.2386 19.048 25.2386H29.9995C30.5255 25.2386 30.9518 24.8123 30.9518 24.2863C30.9518 23.7603 30.5255 23.334 29.9995 23.334Z" fill="#FA7907"/>
<path d="M16.3348 13.668C15.9776 13.2915 15.3847 13.2703 15.0015 13.6204L11.9541 16.5249L10.6685 15.1916C10.3113 14.8152 9.71837 14.7939 9.33522 15.1441C8.96638 15.5305 8.96638 16.1385 9.33522 16.5249L11.2874 18.5248C11.4564 18.714 11.7005 18.8186 11.954 18.8105C12.2052 18.8069 12.4448 18.7042 12.6206 18.5248L16.3346 15.0013C16.7028 14.6635 16.7274 14.0911 16.3896 13.723C16.3722 13.7038 16.3539 13.6855 16.3348 13.668Z" fill="#FA7907"/>
<path d="M29.9995 15.7168H19.048C18.522 15.7168 18.0957 16.1431 18.0957 16.6691C18.0957 17.1951 18.522 17.6214 19.048 17.6214H29.9995C30.5255 17.6214 30.9518 17.1951 30.9518 16.6691C30.9518 16.1431 30.5255 15.7168 29.9995 15.7168Z" fill="#FA7907"/>
<path d="M16.3348 28.9062C15.9776 28.5297 15.3847 28.5086 15.0015 28.8587L11.9541 31.7631L10.6685 30.4299C10.3113 30.0534 9.71837 30.0322 9.33522 30.3823C8.96638 30.7687 8.96638 31.3767 9.33522 31.7631L11.2874 33.763C11.4564 33.9522 11.7005 34.0568 11.954 34.0487C12.2052 34.0452 12.4448 33.9424 12.6206 33.763L16.3346 30.2395C16.7028 29.9017 16.7274 29.3294 16.3896 28.9613C16.3722 28.9421 16.3539 28.9238 16.3348 28.9062Z" fill="#FA7907"/>
<path d="M29.9995 30.9531H19.048C18.522 30.9531 18.0957 31.3795 18.0957 31.9054C18.0957 32.4314 18.522 32.8577 19.048 32.8577H29.9995C30.5255 32.8577 30.9518 32.4314 30.9518 31.9054C30.9518 31.3795 30.5255 30.9531 29.9995 30.9531Z" fill="#FA7907"/>
</g>
<defs>
<clipPath id="clip0">
<rect width="40" height="40" fill="white"/>
</clipPath>
</defs>
</svg>
