<svg width="40" height="40" viewBox="0 0 40 40" fill="none" xmlns="http://www.w3.org/2000/svg">
<path d="M34.7559 8.5775L26.4225 0.244141C26.2663 0.0878906 26.0547 0 25.8333 0H8.33328C6.49578 0 5 1.49492 5 3.33336V36.6667C5 38.5051 6.49578 40 8.33336 40H31.6667C33.5042 40 35 38.5051 35 36.6666V9.16664C35 8.94531 34.9121 8.73375 34.7559 8.5775ZM26.6666 2.84508L32.1549 8.33336H28.3333C27.4137 8.33336 26.6666 7.58547 26.6666 6.66672V2.84508ZM33.3334 36.6666C33.3334 37.5854 32.5863 38.3333 31.6667 38.3333H8.33336C7.41375 38.3333 6.66672 37.5854 6.66672 36.6666V3.33336C6.66672 2.41461 7.41383 1.66672 8.33336 1.66672H25V6.66672C25 8.50508 26.4958 10 28.3334 10H33.3334V36.6666Z" fill="#FA7907"/>
<path d="M29.166 23.333H17.4994C17.0388 23.333 16.666 23.7057 16.666 24.1664C16.666 24.627 17.0388 24.9997 17.4994 24.9997H29.166C29.6267 24.9997 29.9994 24.627 29.9994 24.1664C29.9994 23.7057 29.6267 23.333 29.166 23.333Z" fill="#FA7907"/>
<path d="M10.8334 9.99973H20.8334C21.294 9.99973 21.6667 9.62699 21.6667 9.16637C21.6667 8.70574 21.294 8.33301 20.8334 8.33301H10.8334C10.3727 8.33301 10 8.70574 10 9.16637C10 9.62699 10.3727 9.99973 10.8334 9.99973Z" fill="#FA7907"/>
<path d="M29.1666 18.333H10.8334C10.3727 18.333 10 18.7057 10 19.1664C10 19.627 10.3727 19.9997 10.8334 19.9997H29.1667C29.6273 19.9997 30.0001 19.627 30.0001 19.1664C30 18.7057 29.6273 18.333 29.1666 18.333Z" fill="#FA7907"/>
<path d="M10 14.1664C10 14.627 10.3727 14.9997 10.8334 14.9997H29.1667C29.6273 14.9997 30.0001 14.627 30.0001 14.1664C30.0001 13.7057 29.6273 13.333 29.1667 13.333H10.8334C10.3727 13.3331 10 13.7058 10 14.1664Z" fill="#FA7907"/>
<path d="M21.9157 30.2396C20.6901 31.4457 19.1455 32.8047 18.5335 33.2182C18.3887 32.8902 18.2243 32.3417 18.125 32.0089C17.7865 30.8866 17.5212 30.0004 16.6666 30.0004C15.9359 30.0004 15.607 30.6685 15.109 31.6793C14.8648 32.174 14.3587 33.2043 14.1748 33.3337C13.9941 33.315 13.6848 33.1042 13.3447 32.7868C14.2627 31.6011 15 30.2282 15 29.167C15 27.3457 13.4668 26.667 12.5 26.667C11.517 26.667 10 28.0985 10 30.0004C10 30.8435 10.4671 31.8851 11.1295 32.799C10.8659 33.0627 10.5973 33.302 10.3336 33.5005C9.96578 33.7764 9.89086 34.2989 10.1659 34.6667C10.3303 34.8856 10.581 35.0004 10.8333 35.0004C11.0074 35.0004 11.1832 34.9458 11.333 34.8336C11.6211 34.6179 11.9303 34.3469 12.2412 34.0376C12.8938 34.6187 13.5872 35.0004 14.1666 35.0004C15.293 35.0004 15.9619 33.7186 16.543 32.5394C16.9271 33.8122 17.2982 35.0004 18.3334 35.0004C18.6117 35.0004 19.4564 35.0004 23.0844 31.4278C23.4131 31.1047 23.4164 30.5774 23.0941 30.2494C22.7718 29.9198 22.2445 29.9182 21.9157 30.2396ZM12.2461 31.4782C11.9076 30.9623 11.6666 30.4268 11.6666 30.0004C11.6666 28.9839 12.4121 28.389 12.5 28.3337C12.6384 28.3337 13.3334 28.3736 13.3334 29.1671C13.3334 29.6984 12.8841 30.5953 12.2461 31.4782Z" fill="#FA7907"/>
</svg>
