<svg width="40" height="40" viewBox="0 0 40 40" fill="none" xmlns="http://www.w3.org/2000/svg">
<g clip-path="url(#clip0)">
<path d="M18.8457 29.6009C18.5448 29.3801 18.1215 29.4445 17.9004 29.7456L17.8168 29.8592C17.596 30.16 17.6603 30.5828 17.9607 30.8041C18.0815 30.8931 18.2221 30.936 18.3614 30.936C18.5686 30.936 18.7733 30.841 18.9058 30.6615L18.9905 30.5463C19.2115 30.2452 19.1467 29.822 18.8457 29.6009Z" fill="#FA7907"/>
<path d="M19.0229 36.0341L17.2836 32.8714L18.9075 30.6597C19.1287 30.3587 19.0638 29.9354 18.7627 29.7143C18.4617 29.4931 18.0384 29.558 17.8174 29.8592L15.9378 32.419C15.782 32.6312 15.7635 32.9144 15.8903 33.1451L17.8378 36.6859V36.6858C17.961 36.9096 18.1924 37.0363 18.431 37.0363C18.5413 37.0362 18.653 37.0092 18.7564 36.9524C19.0835 36.7725 19.2029 36.3613 19.0229 36.0341Z" fill="#FA7907"/>
<path d="M24.0635 32.4201L22.1916 29.8707C22.0364 29.6594 21.7734 29.5567 21.516 29.6076C21.2587 29.6581 21.054 29.853 20.9904 30.1073C20.9416 30.3026 20.9823 30.5093 21.1014 30.6716L22.7173 32.8725L20.9899 36.0137C20.9351 36.1135 20.9062 36.226 20.9062 36.34C20.9062 36.6487 21.1153 36.9182 21.4143 36.995C21.4703 37.0094 21.5268 37.0164 21.5826 37.0164C21.8247 37.0164 22.0541 36.8858 22.1752 36.666L24.1109 33.1464C24.2379 32.9156 24.2193 32.6323 24.0635 32.4201Z" fill="#FA7907"/>
<path d="M25.1344 21.7915C24.912 21.6747 24.6431 21.6906 24.4361 21.8333C24.0338 22.1104 23.6606 22.404 23.3267 22.7058C21.5067 24.3511 19.7775 24.1284 19.7098 24.1187C19.669 24.1123 19.6275 24.1094 19.5865 24.1107C18.8672 24.1291 17.5703 23.4719 16.1984 22.3944C15.9885 22.2296 15.7734 22.0726 15.5585 21.9276C15.3513 21.7876 15.0836 21.7734 14.8628 21.8908C14.642 22.0082 14.5039 22.2379 14.5039 22.488V24.808C14.5039 25.0132 14.5973 25.2071 14.7573 25.3355C14.7762 25.3508 14.7959 25.3648 14.8162 25.3778L19.6116 28.5822C19.6124 28.5827 19.6131 28.5833 19.6138 28.5838L19.6265 28.5923C19.7394 28.667 19.8695 28.7047 20 28.7047C20.1099 28.7047 20.2197 28.6781 20.3201 28.6244C20.3413 28.6131 20.3616 28.6006 20.3811 28.5874C20.3834 28.5859 20.3856 28.5844 20.388 28.5828C20.3906 28.5811 20.3933 28.5793 20.3959 28.5775L25.18 25.3807C25.1992 25.3685 25.218 25.3554 25.236 25.3413C25.4002 25.2132 25.4961 25.0166 25.4961 24.8083V22.3902C25.4961 22.1388 25.3569 21.9084 25.1344 21.7915ZM24.1435 24.4463L19.9999 27.2151L15.8565 24.4462V23.8312C16.8654 24.5644 18.3495 25.4637 19.5593 25.4636C19.5618 25.4636 19.5646 25.4636 19.5672 25.4636C19.9734 25.5085 22.0447 25.6306 24.1436 23.7894V24.4463H24.1435Z" fill="#FA7907"/>
<path d="M20.6674 27.9176C20.6228 27.6494 20.4218 27.434 20.1573 27.3709C19.8926 27.3081 19.6162 27.4093 19.4552 27.6285L17.9008 29.7458C17.6797 30.0469 17.7445 30.4702 18.0457 30.6912C18.1662 30.7798 18.3064 30.8224 18.4454 30.8224C18.6533 30.8224 18.8585 30.7267 18.9912 30.5462L20.5375 28.4401C20.6255 28.3251 20.6767 28.182 20.6767 28.029C20.6766 27.9918 20.6735 27.9543 20.6674 27.9176Z" fill="#FA7907"/>
<path d="M30.3025 6.11482C30.2891 6.00888 29.9723 3.72247 27.8201 2.82051C27.8826 2.41895 27.8761 1.90286 27.6211 1.40074C27.2785 0.7259 26.6023 0.286133 25.6113 0.0934766C25.5688 0.0851953 25.5257 0.0810547 25.4823 0.0810547H16.4052C12.7194 0.0810547 9.7207 3.07965 9.7207 6.7656V10.3274C9.7207 11.2554 10.037 12.1603 10.6113 12.8753C10.8959 13.2298 11.2466 13.849 11.2995 14.7851C11.3201 15.1505 11.626 15.433 11.9938 15.4228C12.3597 15.4125 12.6509 15.1128 12.6509 14.7468V10.103C13.1102 8.20388 14.6774 7.83427 14.9469 7.78435H17.883C18.2284 7.78435 18.568 7.73162 18.8926 7.62755C19.4509 7.44849 20.3366 7.11896 20.9814 6.87404C21.4128 6.71005 21.8905 6.70404 22.3262 6.85716L25.4695 7.9606C27.0409 8.54029 27.3214 9.91982 27.3561 10.1365V15.7098C27.3561 16.0637 27.629 16.3574 27.982 16.3837C27.9992 16.385 28.0161 16.3857 28.0329 16.3857C28.3646 16.3856 28.6511 16.1426 28.7013 15.8095C28.7039 15.7921 28.9739 14.0478 29.8447 12.6512C30.1477 12.1651 30.3079 11.6108 30.3079 11.0483V6.20021C30.3079 6.17169 30.3061 6.14318 30.3025 6.11482ZM28.9553 11.048C28.9553 11.3501 28.87 11.6497 28.7086 11.9162V10.0903C28.7086 10.0658 28.7073 10.0415 28.7046 10.0172C28.694 9.91904 28.4146 7.60138 25.9314 6.68919C25.9283 6.6881 25.9253 6.68701 25.9222 6.68591L22.7742 5.58075C22.4192 5.45614 22.0479 5.39396 21.6768 5.39396C21.2778 5.39396 20.8789 5.46591 20.501 5.60966C19.5982 5.95263 18.8991 6.20505 18.4795 6.33958C18.2886 6.40075 18.0879 6.43185 17.8829 6.43185H14.8922C14.8632 6.43185 14.8342 6.43372 14.8053 6.4374C14.6909 6.45224 11.9934 6.83583 11.3146 9.87842C11.3038 9.92678 11.2984 9.97615 11.2984 10.0257V11.4176C11.1511 11.0772 11.0731 10.7055 11.0731 10.3275V6.76576C11.0731 3.82575 13.4651 1.43379 16.405 1.43379H25.414C25.787 1.51324 26.2403 1.67629 26.4122 2.00801C26.6228 2.41403 26.3829 2.97309 26.3827 2.97356C26.2962 3.15755 26.2972 3.37059 26.3851 3.5538C26.4731 3.737 26.6389 3.87091 26.8365 3.91848C28.5582 4.33294 28.9094 5.98427 28.9552 6.25138V11.048H28.9553Z" fill="#FA7907"/>
<path d="M28.7052 10.0168C28.6946 9.9186 28.4151 7.60094 25.9319 6.68875C25.9289 6.68765 25.9258 6.68656 25.9228 6.68546L22.7747 5.58031C22.038 5.32171 21.2308 5.33202 20.5015 5.60906C19.5987 5.95203 18.8996 6.20445 18.4799 6.33906C18.2891 6.40023 18.0884 6.43125 17.8834 6.43125H14.8927C14.8637 6.43125 14.8346 6.43312 14.8058 6.43679C14.6913 6.45164 11.9939 6.83523 11.3151 9.87781C11.3043 9.92617 11.2988 9.97555 11.2988 10.0251V15.8388C11.2988 15.8438 11.2989 15.8488 11.299 15.8538C11.3034 16.0558 11.4463 20.8251 14.7416 23.0063L14.7587 23.0183C14.7728 23.0283 14.787 23.0383 14.8017 23.0482C14.9896 23.1751 15.1783 23.3128 15.3628 23.4577C16.3228 24.2115 18.132 25.4632 19.5592 25.4632C19.5618 25.4632 19.5643 25.4632 19.5671 25.4632C19.6446 25.4717 19.7829 25.4831 19.9706 25.4831C20.7794 25.4831 22.505 25.2711 24.2335 23.7086C24.5236 23.4465 24.8497 23.1901 25.2033 22.9465L25.2539 22.9111C25.2704 22.8995 25.2868 22.8878 25.3039 22.8764C26.4031 22.1381 28.3068 20.2331 28.7065 15.7695C28.7083 15.7495 28.7093 15.7292 28.7093 15.7091V10.0898C28.7092 10.0655 28.7078 10.0412 28.7052 10.0168ZM27.3565 15.6785C26.988 19.7068 25.2717 21.2685 24.5496 21.7534C24.524 21.7706 24.4987 21.7885 24.4734 21.8063L24.4359 21.8327C24.0336 22.1098 23.6603 22.4034 23.3264 22.7052C21.5132 24.3444 19.7897 24.1294 19.7052 24.1175C19.6659 24.1117 19.626 24.1092 19.5863 24.1103C18.867 24.1287 17.5701 23.4714 16.1981 22.3939C15.9883 22.2291 15.7731 22.0721 15.5586 21.9273L15.542 21.9156C15.5257 21.904 15.5095 21.8925 15.4905 21.8799C12.8313 20.1198 12.6573 16.001 12.6514 15.8291V10.1025C13.1123 8.19641 14.6892 7.83101 14.9463 7.78383H17.8835C18.2288 7.78383 18.5685 7.73109 18.8931 7.62703C19.4514 7.44797 20.3371 7.11843 20.9819 6.87351C21.4133 6.70953 21.891 6.70351 22.3267 6.85664L25.47 7.96008C27.0414 8.53977 27.3218 9.9193 27.3566 10.136V15.6785H27.3565Z" fill="#FA7907"/>
<path d="M20.6044 27.7263C20.499 27.5156 20.2915 27.3749 20.0567 27.3549C19.8224 27.3355 19.5938 27.4385 19.4543 27.6285L17.8343 29.8349C17.6135 30.1359 17.678 30.5588 17.9787 30.78C18.0993 30.8688 18.2397 30.9117 18.3789 30.9117C18.5864 30.9117 18.7912 30.8164 18.9238 30.6365L20.5439 28.4382C20.6296 28.322 20.6758 28.1734 20.6758 28.029C20.6759 27.9241 20.6513 27.8203 20.6044 27.7263Z" fill="#FA7907"/>
<path d="M20.6477 38.6161C20.3936 38.3504 19.9739 38.3363 19.7026 38.5845L19.548 38.7259C19.3165 38.9376 19.261 39.2807 19.414 39.5546L19.4187 39.5631C19.522 39.7482 19.7062 39.8741 19.9162 39.9033C19.9472 39.9076 19.9783 39.9097 20.0093 39.9097C20.1873 39.9097 20.3597 39.8393 20.4875 39.7115L20.6372 39.5616C20.8972 39.3017 20.9018 38.8817 20.6477 38.6161Z" fill="#FA7907"/>
<path d="M20.4514 38.7249L20.2968 38.5835C20.0255 38.3353 19.6057 38.3495 19.3516 38.6151C19.0975 38.8809 19.1022 39.301 19.3622 39.5608L19.5122 39.7107C19.6399 39.8385 19.8123 39.9088 19.9903 39.9088C20.0221 39.9088 20.0541 39.9066 20.086 39.902C20.2966 39.8719 20.4809 39.7443 20.5833 39.5578L20.5881 39.5492C20.7379 39.2758 20.6815 38.9353 20.4514 38.7249Z" fill="#FA7907"/>
<path d="M20.4627 38.7359L20.4619 38.7351C20.3574 38.6374 20.2223 38.5731 20.0735 38.5567C19.8742 38.535 19.6801 38.6025 19.5389 38.734L19.5369 38.7359C19.4002 38.8606 19.3205 39.036 19.3166 39.221C19.3126 39.4061 19.3846 39.5846 19.5158 39.7151L19.5229 39.7222C19.6548 39.8534 19.8273 39.9189 19.9998 39.9189C20.1729 39.9189 20.3459 39.8528 20.4779 39.721L20.485 39.7139C20.6156 39.5831 20.6872 39.4048 20.6829 39.2201C20.6788 39.0353 20.5992 38.8604 20.4627 38.7359Z" fill="#FA7907"/>
<path d="M20.2185 27.3747C19.9384 27.285 19.631 27.389 19.4605 27.6288C19.2697 27.8974 19.3012 28.2634 19.5336 28.497C19.6644 28.6284 19.838 28.6957 20.0129 28.6957C20.1488 28.6957 20.2853 28.6551 20.4031 28.5721C20.5831 28.4455 20.6903 28.2392 20.6903 28.0191V28.0174C20.6903 27.7231 20.4989 27.4641 20.2185 27.3747Z" fill="#FA7907"/>
<path d="M20.5501 27.6229L20.5443 27.6151C20.3708 27.3802 20.0661 27.2835 19.7888 27.3748C19.5116 27.4662 19.3242 27.7252 19.3242 28.0171V28.0287C19.3242 28.2777 19.464 28.5046 19.6834 28.6224C19.7827 28.6758 19.8924 28.7021 20.002 28.7021C20.1341 28.7021 20.266 28.6638 20.3795 28.5887C20.5341 28.4863 20.6399 28.3249 20.6722 28.1423C20.7045 27.9598 20.6603 27.772 20.5501 27.6229Z" fill="#FA7907"/>
<path d="M28.0457 25.4983C27.9756 25.313 27.8279 25.1679 27.6415 25.1011L25.0484 24.1716C25.0274 24.1641 25.0056 24.1574 24.9839 24.1521C24.7988 24.1058 24.6027 24.1397 24.4441 24.2458L19.6396 27.4563C19.6384 27.4572 19.6369 27.458 19.6356 27.459L20.0129 28.0199L19.6272 27.4647C19.4862 27.5579 19.3853 27.7008 19.3444 27.8647C19.3219 27.9547 19.3182 28.0487 19.3334 28.1401C19.3509 28.2447 19.3926 28.3437 19.4554 28.4293L22.973 33.22C23.1008 33.3942 23.3036 33.4961 23.518 33.4961C23.5327 33.4961 23.5474 33.4955 23.5622 33.4945C23.7926 33.4794 23.9994 33.348 24.1106 33.1455L28.0057 26.0636C28.1013 25.8901 28.1159 25.6833 28.0457 25.4983ZM23.4361 31.5654L20.9638 28.1982L24.9124 25.5597L26.4384 26.1068L23.4361 31.5654Z" fill="#FA7907"/>
<path d="M20.6654 27.9119C20.6336 27.7304 20.5292 27.5697 20.3761 27.4669L15.5555 24.2458C15.4021 24.1431 15.2129 24.108 15.0327 24.148C15.005 24.154 14.9779 24.162 14.9512 24.1715L12.3582 25.1011C12.1718 25.1679 12.024 25.313 11.954 25.4982C11.8839 25.6834 11.8984 25.89 11.9939 26.0636L15.889 33.1455C16.0002 33.3478 16.207 33.4793 16.4374 33.4945C16.4521 33.4954 16.4668 33.4959 16.4815 33.4959C16.6959 33.4959 16.8986 33.394 17.0267 33.2197L18.9062 30.6599C18.9077 30.658 18.9092 30.6559 18.9107 30.6538L20.5443 28.4287C20.6534 28.2801 20.6972 28.0935 20.6654 27.9119ZM17.8161 29.8591C17.8144 29.8613 17.8129 29.8635 17.8112 29.8657L16.5633 31.5653L13.561 26.1066L15.0871 25.5596L19.0356 28.1981L17.8161 29.8591Z" fill="#FA7907"/>
<path d="M39.9672 37.0434L39.0948 31.7752C38.8199 30.1149 37.6661 28.7278 36.0836 28.1555L27.6434 25.1019C27.3832 25.0078 27.0923 25.0816 26.9084 25.288C26.7245 25.4945 26.6847 25.7921 26.8082 26.0397L28.5703 29.5736L26.8412 29.6002C26.6064 29.6039 26.3903 29.7289 26.2703 29.9308C26.1503 30.1327 26.1436 30.3822 26.2525 30.5902L26.9617 31.9444L19.7037 38.584C19.6963 38.5908 19.689 38.5977 19.6819 38.6048L19.532 38.7546C19.3198 38.967 19.2728 39.2939 19.417 39.5573L19.4223 39.5669C19.541 39.7837 19.7685 39.9186 20.0156 39.9186H37.529C38.2566 39.9186 38.9436 39.6004 39.414 39.0456C39.8845 38.4907 40.0862 37.7609 39.9672 37.0434ZM38.3826 38.1708C38.1695 38.4221 37.8584 38.5661 37.5291 38.5661H21.727L28.2592 32.5908C28.4857 32.3837 28.5443 32.05 28.4018 31.7781L27.9606 30.9356L29.6657 30.9094C29.8982 30.9059 30.1123 30.7831 30.2332 30.5846C30.3539 30.386 30.3643 30.1394 30.2606 29.9313L28.7733 26.9488L35.6238 29.4272C36.7468 29.8334 37.5657 30.8178 37.7608 31.996L38.6332 37.2642C38.6332 37.2643 38.6332 37.2643 38.6332 37.2643C38.6869 37.5892 38.5957 37.9196 38.3826 38.1708Z" fill="#FA7907"/>
<path d="M20.4693 38.7406L20.4614 38.7335C20.1937 38.4911 19.7826 38.5019 19.5279 38.758L19.5209 38.7651C19.3283 38.9589 19.2712 39.2495 19.3761 39.5017C19.481 39.754 19.7274 39.9183 20.0005 39.9183H20.0154C20.295 39.9183 20.5458 39.7461 20.6463 39.4852C20.747 39.2242 20.6766 38.9282 20.4693 38.7406Z" fill="#FA7907"/>
<path d="M20.4479 38.7215C20.2944 38.5833 20.0862 38.5227 19.8823 38.5575C19.6786 38.5919 19.5019 38.7178 19.4025 38.8989L19.3978 38.9074C19.2552 39.1673 19.2986 39.4898 19.5048 39.7029L19.5072 39.7054C19.6397 39.8424 19.8162 39.9115 19.9933 39.9115C20.1562 39.9115 20.3195 39.8529 20.4489 39.7347L20.456 39.7283C20.5174 39.6723 20.568 39.6053 20.6052 39.5309C20.7414 39.2588 20.674 38.9249 20.4479 38.7215Z" fill="#FA7907"/>
<path d="M20.4768 38.7629L20.474 38.76C20.4722 38.7582 20.4703 38.7564 20.4686 38.7546L20.3186 38.6048C20.3115 38.5977 20.3043 38.5907 20.2969 38.5841L13.0389 31.9445L13.7482 30.5903C13.8572 30.3824 13.8504 30.1328 13.7304 29.9309C13.6104 29.7291 13.3943 29.604 13.1596 29.6003L11.4303 29.5737L13.1925 26.0398C13.3159 25.7923 13.2761 25.4945 13.0922 25.2881C12.9084 25.0816 12.6171 25.0077 12.3572 25.102L3.91713 28.1556C2.33463 28.7278 1.18072 30.1149 0.905799 31.7753L0.0333751 37.0435C-0.0854532 37.7613 0.116266 38.491 0.586736 39.0457C1.05728 39.6005 1.74439 39.9187 2.47174 39.9187H20.0001C20.274 39.9187 20.5208 39.7535 20.6251 39.5003C20.7296 39.2472 20.671 38.956 20.4768 38.7629ZM2.47182 38.5662C2.14244 38.5662 1.83135 38.4221 1.61838 38.1709C1.40541 37.9197 1.31416 37.5893 1.36791 37.2643L2.24033 31.9961C2.43541 30.8178 3.25424 29.8335 4.37729 29.4273L11.2277 26.9489L9.7405 29.9313C9.63675 30.1393 9.64707 30.3859 9.76792 30.5845C9.88863 30.7831 10.1029 30.9058 10.3353 30.9093L12.0405 30.9356L11.5993 31.7781C11.4568 32.0499 11.5154 32.3837 11.7418 32.5908L18.274 38.5662H2.47182Z" fill="#FA7907"/>
<path d="M22.3018 30.4337C22.3506 30.2384 22.3099 30.0316 22.1908 29.8694L20.545 27.628C20.372 27.3924 20.067 27.2987 19.7894 27.3898C19.6394 27.439 19.5159 27.5382 19.4337 27.665L17.818 29.8572C17.7949 29.8885 17.7744 29.9221 17.7569 29.9569C17.6462 30.1784 17.6654 30.4426 17.8068 30.6458L18.4948 31.6339L17.7619 36.254C17.7383 36.4023 17.7649 36.5542 17.8372 36.6859L19.4074 39.5406C19.5262 39.7568 19.7534 39.891 20 39.891C20.2466 39.891 20.4737 39.7568 20.5926 39.5406L22.1744 36.6647C22.2293 36.5648 22.2581 36.4527 22.2581 36.3388V36.3384C22.2581 36.303 22.2552 36.2675 22.2498 36.2324L21.5201 31.634L22.2008 30.6568C22.2475 30.5891 22.2819 30.5134 22.3018 30.4337ZM20 37.8115L19.134 36.237L19.8733 31.5769C19.9008 31.4043 19.8602 31.2279 19.7604 31.0845L19.1937 30.2706L20.0019 29.1739L20.8144 30.2805L20.2545 31.0845C20.1547 31.2278 20.1142 31.4043 20.1415 31.5769L20.8776 36.2158L20 37.8115Z" fill="#FA7907"/>
</g>
<defs>
<clipPath id="clip0">
<rect width="40" height="40" fill="white"/>
</clipPath>
</defs>
</svg>
