<svg width="40" height="40" viewBox="0 0 40 40" fill="none" xmlns="http://www.w3.org/2000/svg">
<path d="M36.6777 35.1505L27.8994 26.5125C30.1981 24.0149 31.6106 20.7119 31.6106 17.0773C31.6094 9.30212 25.2053 3 17.3047 3C9.40417 3 3 9.30212 3 17.0773C3 24.8524 9.40417 31.1546 17.3047 31.1546C20.7183 31.1546 23.8492 29.9738 26.3084 28.0109L35.1208 36.683C35.5502 37.106 36.2473 37.106 36.6767 36.683C37.1071 36.2601 37.1071 35.5735 36.6777 35.1505ZM17.3047 28.9887C10.62 28.9887 5.20098 23.6558 5.20098 17.0773C5.20098 10.4988 10.62 5.16587 17.3047 5.16587C23.9895 5.16587 29.4085 10.4988 29.4085 17.0773C29.4085 23.6558 23.9895 28.9887 17.3047 28.9887Z" fill="#FA7907"/>
</svg>
