<svg width="40" height="40" viewBox="0 0 40 40" fill="none" xmlns="http://www.w3.org/2000/svg">
<g clip-path="url(#clip0)">
<path d="M38.2625 21.1495L32.2255 19.532C31.4256 19.3177 30.61 19.5465 30.0389 20.0666L28.3817 16.9932C27.3507 15.0812 25.9043 13.4079 24.1673 12.1092L28.518 7.75849C28.823 7.45342 28.823 6.95874 28.518 6.65358L23.6567 1.79222C23.3516 1.48723 22.8569 1.48723 22.5518 1.79222L15.2088 9.1352C13.2375 9.13629 11.3146 9.51918 9.49322 10.2736C7.66941 11.0291 6.03685 12.1199 4.64092 13.5158L2.49759 15.6592C1.93681 16.22 1.62806 16.9654 1.62806 17.7584C1.62806 18.5514 1.93689 19.2968 2.49759 19.8576C2.88305 20.2431 3.34906 20.4994 3.84187 20.6281L0.066126 29.2145C-0.0635602 29.5094 0.00104857 29.8537 0.228859 30.0815C0.378545 30.2311 0.578387 30.3103 0.78151 30.3103C0.887602 30.3103 0.994633 30.2887 1.0958 30.2442L9.6833 26.468C9.81189 26.9616 10.0684 27.4284 10.4543 27.8144C11.0331 28.3931 11.7933 28.6825 12.5535 28.6825C13.3137 28.6825 14.074 28.3931 14.6527 27.8144L15.5033 26.9638L15.8439 27.3044C17.6326 31.3294 21.5204 33.9809 25.8941 34.2C25.8344 34.6992 25.9364 35.2021 26.1924 35.6453C26.5053 36.1875 27.0108 36.5753 27.6155 36.7374L33.6524 38.355C33.8549 38.4092 34.0581 38.4351 34.2584 38.4351C35.2931 38.4351 36.2426 37.7434 36.5229 36.6977L37.2908 33.8318C37.4025 33.415 37.1551 32.9867 36.7383 32.875C36.3218 32.7632 35.8932 33.0106 35.7816 33.4274L35.0137 36.2933C34.9022 36.7095 34.473 36.9573 34.0568 36.8457L28.0198 35.2281C27.8183 35.1741 27.6498 35.0448 27.5455 34.8641C27.4412 34.6834 27.4134 34.4728 27.4674 34.2713L30.8643 21.5937C30.9759 21.1776 31.4054 20.9299 31.8212 21.0413L37.8582 22.6588C38.2743 22.7704 38.5222 23.1996 38.4106 23.6157L37.6017 26.6346C37.49 27.0514 37.7373 27.4797 38.1541 27.5914C38.5706 27.7031 38.9993 27.4558 39.1109 27.039L39.9198 24.0201C40.2543 22.7717 39.5108 21.4841 38.2625 21.1495ZM26.8607 7.206L15.9435 18.1232L15.8556 18.0353C15.4104 17.5902 14.8596 17.2896 14.26 17.1551L25.5349 5.88015L26.8607 7.206ZM23.1043 3.44955L24.43 4.77532L7.02731 22.178L5.70154 20.8522L23.1043 3.44955ZM3.60242 18.7528C3.3368 18.4872 3.19055 18.134 3.19055 17.7584C3.19055 17.3828 3.3368 17.0297 3.60242 16.764L5.74576 14.6206C7.87675 12.4896 10.5995 11.1653 13.5433 10.8006L5.59107 18.7528C5.04287 19.3012 4.1507 19.301 3.60242 18.7528ZM4.85202 22.2124L8.09777 25.4582L2.30446 28.0057L4.85202 22.2124ZM9.45807 24.6086L8.1323 23.2829L10.3367 21.0784C10.4681 21.6642 10.7604 22.2208 11.2153 22.6758L11.3032 22.7637L9.45807 24.6086ZM13.5477 26.7095C12.9994 27.2578 12.1073 27.2577 11.559 26.7096C11.0107 26.1611 11.0107 25.269 11.559 24.7207L12.4096 23.8701L14.3983 25.8588L13.5477 26.7095ZM26.2842 32.6504C22.3276 32.5736 18.7837 30.1968 17.2186 26.5484C17.1795 26.4571 17.1233 26.3742 17.0531 26.3039L12.3201 21.5709C11.6499 20.9009 11.6499 19.8104 12.3201 19.1403C12.6447 18.8157 13.0763 18.6369 13.5354 18.6369C13.9944 18.6369 14.4261 18.8157 14.7507 19.1403L19.4837 23.8733C19.7887 24.1783 20.2834 24.1783 20.5886 23.8733C20.8937 23.5683 20.8937 23.0736 20.5886 22.7684L17.0483 19.2281L23.0486 13.2279C24.6855 14.4088 26.0472 15.9558 27.0065 17.7348L29.1938 21.7912L26.2842 32.6504Z" fill="#FA7907"/>
<path d="M37.4463 31.0146C37.24 31.0146 37.0393 30.9311 36.8932 30.7857C36.7479 30.6396 36.665 30.4389 36.665 30.2334C36.665 30.0271 36.7479 29.8264 36.8932 29.6803C37.0385 29.535 37.24 29.4521 37.4463 29.4521C37.6518 29.4521 37.8533 29.535 37.9986 29.6803C38.1439 29.8264 38.2275 30.0271 38.2275 30.2334C38.2275 30.4389 38.1439 30.6404 37.9986 30.7857C37.8525 30.9311 37.6518 31.0146 37.4463 31.0146Z" fill="#FA7907"/>
</g>
<defs>
<clipPath id="clip0">
<rect width="40" height="40" fill="white"/>
</clipPath>
</defs>
</svg>
